<svg width="138" height="30" viewBox="0 0 138 30" fill="none" xmlns="http://www.w3.org/2000/svg">
<g filter="url(#filter0_d_6004_781)">
<path d="M29.34 19.7721L29.3393 2.22442L34.1402 1.49966L36.9203 1.49984L36.9201 4.5649L32.4829 4.56461L32.4825 9.50736L36.92 7.27098L36.9197 10.695L32.4823 12.959L32.4823 20.396L29.34 19.7721Z" fill="white"/>
<path d="M38.4913 4.12319C38.4914 2.43879 39.4286 1.5 41.0271 1.5001L44.5273 1.50032C46.1258 1.50042 47.0904 2.43933 47.0902 4.12373L47.0902 4.59315L43.9206 6.24974L43.9207 4.53773L41.6332 4.53758L41.6329 9.36988L47.0901 6.55369L47.0894 18.0407C47.0893 19.7251 46.1246 20.6639 44.5261 20.6638L41.0259 20.6636C39.4273 20.6635 38.4903 19.7246 38.4904 18.0402L38.4906 16.2453L41.6326 14.6164L41.6324 17.6262L43.9199 17.6263L43.9203 11.6067L38.4907 14.4505L38.4913 4.12319Z" fill="white"/>
<path d="M57.9095 1.50117L57.9085 17.5996L60.196 17.5998L60.197 1.50132L63.3665 1.50152L63.3654 17.9866C63.3653 19.809 62.4833 20.665 60.6092 20.6648L58.1563 20.6647C57.0263 20.6646 56.3649 20.0019 56.365 18.8145C56.3649 20.0019 55.6759 20.6645 54.5459 20.6645L51.9 20.6643C50.3015 20.6642 49.3645 19.7253 49.3646 18.0409L49.3657 1.50063L52.5076 1.50083L52.5066 17.5993L54.8217 17.5994L54.8227 1.50098L57.9095 1.50117Z" fill="white"/>
<path d="M76.6796 8.3228L76.6798 4.45697L74.1442 4.45681L74.1439 9.56523L76.6796 8.3228ZM79.7111 10.4768L79.7106 18.0152C79.7105 19.8101 78.801 20.666 76.8993 20.6659L71.1115 20.6655L71.1128 1.50201L77.1485 1.50239C78.7471 1.50249 79.7116 2.4414 79.7115 4.1258L79.7113 8.15732C79.7112 9.39991 79.3253 10.1454 78.3607 10.4767L79.7111 10.4768ZM76.679 17.6837L76.6794 11.5259L74.1437 12.796L74.1434 17.6835L76.679 17.6837Z" fill="white"/>
<path d="M90.584 20.6667L87.4421 20.6666L87.4426 12.5483L85.1274 13.7355L85.127 20.6664L81.9851 20.6662L81.9861 4.12595C81.9862 2.44155 82.9234 1.50276 84.5219 1.50286L88.0221 1.50308C89.6206 1.50318 90.5852 2.44209 90.5851 4.12649L90.584 20.6667ZM87.4428 9.17949L87.4431 4.54049L85.128 4.54034L85.1277 10.3115L87.4428 9.17949Z" fill="white"/>
<path d="M98.3702 9.23541L98.3705 4.54118L96.0554 4.54103L96.055 10.395L98.3702 9.23541ZM101.512 11.0029L99.1968 12.1901L102.779 20.6675L99.4995 20.6673L96.5234 13.5706L96.0548 13.819L96.0544 20.6671L92.9125 20.6669L92.9137 1.50339L98.9495 1.50378C100.548 1.50388 101.513 2.44279 101.512 4.12719L101.512 11.0029Z" fill="white"/>
<path d="M109.327 8.32488L109.327 4.45904L106.792 4.45888L106.791 9.56731L109.327 8.32488ZM112.359 10.4789L112.358 18.0173C112.358 19.8121 111.449 20.6681 109.547 20.668L103.759 20.6676L103.76 1.50408L109.796 1.50447C111.395 1.50457 112.359 2.44347 112.359 4.12787L112.359 8.15939C112.359 9.40198 111.973 10.1475 111.008 10.4788L112.359 10.4789ZM109.327 17.6857L109.327 11.528L106.791 12.798L106.791 17.6856L109.327 17.6857Z" fill="white"/>
<path d="M122.212 20.6688L114.633 20.6683L114.634 1.50477L122.213 1.50525L122.213 4.57031L117.776 4.57003L117.775 9.51278L122.213 7.27639L122.212 10.7004L117.775 12.9644L117.775 17.6034L122.212 17.6037L122.212 20.6688Z" fill="white"/>
<path d="M129.591 9.23739L129.592 4.54316L127.276 4.54302L127.276 10.397L129.591 9.23739ZM132.733 11.0048L130.418 12.1921L134 20.6695L130.721 20.6693L127.744 13.5725L127.276 13.821L127.275 20.6691L124.134 20.6689L124.135 1.50538L130.171 1.50576C131.769 1.50586 132.734 2.44477 132.733 4.12917L132.733 11.0048Z" fill="white"/>
<path d="M29.34 19.7721L29.3393 2.22442L34.1402 1.49966L36.9203 1.49984L36.9201 4.5649L32.4829 4.56461L32.4825 9.50736L36.92 7.27098L36.9197 10.695L32.4823 12.959L32.4823 20.396L29.34 19.7721Z" fill="#8162FF"/>
<path d="M38.4913 4.12319C38.4914 2.43879 39.4286 1.5 41.0271 1.5001L44.5273 1.50032C46.1258 1.50042 47.0904 2.43933 47.0902 4.12373L47.0902 4.59315L43.9206 6.24974L43.9207 4.53773L41.6332 4.53758L41.6329 9.36988L47.0901 6.55369L47.0894 18.0407C47.0893 19.7251 46.1246 20.6639 44.5261 20.6638L41.0259 20.6636C39.4273 20.6635 38.4903 19.7246 38.4904 18.0402L38.4906 16.2453L41.6326 14.6164L41.6324 17.6262L43.9199 17.6263L43.9203 11.6067L38.4907 14.4505L38.4913 4.12319Z" fill="#8162FF"/>
<path d="M57.9095 1.50117L57.9085 17.5996L60.196 17.5998L60.197 1.50132L63.3665 1.50152L63.3654 17.9866C63.3653 19.809 62.4833 20.665 60.6092 20.6648L58.1563 20.6647C57.0263 20.6646 56.3649 20.0019 56.365 18.8145C56.3649 20.0019 55.6759 20.6645 54.5459 20.6645L51.9 20.6643C50.3015 20.6642 49.3645 19.7253 49.3646 18.0409L49.3657 1.50063L52.5076 1.50083L52.5066 17.5993L54.8217 17.5994L54.8227 1.50098L57.9095 1.50117Z" fill="#8162FF"/>
<path fill-rule="evenodd" clip-rule="evenodd" d="M5.81656 4.93415C5.8165 5.76273 6.14596 6.55739 6.73244 7.14331C7.31892 7.72924 8.11439 8.05844 8.94385 8.05849C9.77331 8.05855 10.5688 7.72945 11.1554 7.14359C11.7419 6.55774 12.0715 5.76313 12.0715 4.93455C12.0716 4.10598 11.7421 3.31132 11.1557 2.72539C10.5692 2.13947 9.77371 1.81027 8.94424 1.81021C8.11478 1.81016 7.31927 2.13926 6.73272 2.72511C6.14616 3.31096 5.81661 4.10558 5.81656 4.93415ZM8.94373 9.87251C7.88532 9.87232 6.8549 9.5328 6.00409 8.9039C5.15328 8.275 4.527 7.38992 4.21739 6.37888C3.90778 5.36784 3.93118 4.28423 4.28416 3.28748C4.63715 2.29073 5.30106 1.43346 6.17824 0.841798C7.05541 0.25014 8.09953 -0.0446657 9.15697 0.000754538C10.2144 0.0461748 11.2293 0.429423 12.0524 1.09411C12.8755 1.7588 13.4633 2.66984 13.7294 3.69318C13.9954 4.71652 13.9256 5.79814 13.5302 6.7789L15.4753 8.07705C15.461 8.12249 15.4475 8.16818 15.4349 8.2141L15.1241 9.32265L14.4118 9.79828L12.4063 8.45981C11.5144 9.3325 10.2916 9.8726 8.94373 9.87251ZM5.81579 17.0578C5.81584 16.2293 6.14539 15.4346 6.73195 14.8488C7.3185 14.2629 8.11401 13.9338 8.94347 13.9339C9.77294 13.9339 10.5684 14.2631 11.1549 14.8491C11.7414 15.435 12.0708 16.2297 12.0708 17.0582C12.0707 17.8868 11.7412 18.6814 11.1546 19.2673C10.568 19.8531 9.77254 20.1822 8.94308 20.1822C8.11362 20.1821 7.31815 19.8529 6.73167 19.267C6.14519 18.6811 5.81574 17.8864 5.81579 17.0578ZM8.94359 12.1199C7.8861 12.1199 6.8565 12.4587 6.00601 13.0865C5.15552 13.7143 4.52897 14.5979 4.21839 15.6077C3.90781 16.6175 3.92957 17.7001 4.28047 18.6966C4.63137 19.6931 5.29292 20.551 6.16795 21.1442C7.04298 21.7373 8.08536 22.0346 9.142 21.9922C10.1986 21.9499 11.2138 21.5702 12.0385 20.9089C12.8631 20.2476 13.4538 19.3396 13.7236 18.3182C13.9935 17.2968 13.9283 16.2159 13.5378 15.2342L34.1659 1.49644L32.2471 1.65448C29.5411 1.93874 26.9206 2.76678 24.5432 4.0888L18.3385 7.53504C18.1054 7.66505 17.9006 7.83994 17.7357 8.0496C17.5708 8.25925 17.4492 8.49949 17.3779 8.75642L16.8673 10.5825L12.4221 13.5512C11.4977 12.6333 10.247 12.1186 8.94359 12.1199ZM18.3138 14.4686L18.338 14.4827L24.5423 17.9298C26.9195 19.2521 29.5399 20.0804 32.2459 20.3651L31.9688 19.003L29.3467 17.3579L21.6755 12.2215L18.3138 14.4686Z" fill="#8162FF"/>
</g>
<defs>
<filter id="filter0_d_6004_781" x="0" y="-0.00411987" width="138.001" height="30.0082" filterUnits="userSpaceOnUse" color-interpolation-filters="sRGB">
<feFlood flood-opacity="0" result="BackgroundImageFix"/>
<feColorMatrix in="SourceAlpha" type="matrix" values="0 0 0 0 0 0 0 0 0 0 0 0 0 0 0 0 0 0 127 0" result="hardAlpha"/>
<feOffset dy="4"/>
<feGaussianBlur stdDeviation="2"/>
<feComposite in2="hardAlpha" operator="out"/>
<feColorMatrix type="matrix" values="0 0 0 0 0 0 0 0 0 0 0 0 0 0 0 0 0 0 0.25 0"/>
<feBlend mode="normal" in2="BackgroundImageFix" result="effect1_dropShadow_6004_781"/>
<feBlend mode="normal" in="SourceGraphic" in2="effect1_dropShadow_6004_781" result="shape"/>
</filter>
</defs>
</svg>
